<svg xmlns="http://www.w3.org/2000/svg" width="720" height="440" viewBox="0 0 720 440">
  <style>text{font-family:-apple-system,BlinkMacSystemFont,"Segoe UI",system-ui,sans-serif}.h{font-size:13px;font-weight:500}.s{font-size:11px;fill:#555}.code{font-size:10.5px;font-family:monospace;fill:#444}.n{font-size:11px;font-weight:500;fill:#FFF}.arr{stroke-width:1.2;fill:none;marker-end:url(#a)}</style>
  <defs><marker id="a" viewBox="0 0 10 10" refX="8" refY="5" markerWidth="6" markerHeight="6" orient="auto-start-reverse"><path d="M2 1L8 5L2 9" fill="none" stroke="context-stroke" stroke-width="1.5" stroke-linecap="round"/></marker></defs>
  <circle cx="55" cy="36" r="12" fill="#534AB7"/><text class="n" x="55" y="40" text-anchor="middle">1</text>
  <rect x="80" y="18" width="220" height="40" rx="8" fill="#EEEDFE" stroke="#534AB7" stroke-width="0.6"/>
  <text class="h" x="190" y="34" text-anchor="middle" fill="#3C3489">_ensure_fresh_ms_token()</text><text class="s" x="190" y="50" text-anchor="middle">Refresh if expired</text>
  <line x1="190" y1="58" x2="190" y2="76" class="arr" stroke="#534AB7"/>
  <circle cx="55" cy="96" r="12" fill="#185FA5"/><text class="n" x="55" y="100" text-anchor="middle">2</text>
  <rect x="80" y="78" width="220" height="40" rx="8" fill="#E6F1FB" stroke="#185FA5" stroke-width="0.6"/>
  <text class="h" x="190" y="94" text-anchor="middle" fill="#0C447C">_build_xbl_chain()</text><text class="s" x="190" y="110" text-anchor="middle">MS → XBL → XSTS</text>
  <line x1="190" y1="118" x2="190" y2="136" class="arr" stroke="#185FA5"/>
  <circle cx="55" cy="156" r="12" fill="#0F6E56"/><text class="n" x="55" y="160" text-anchor="middle">3</text>
  <rect x="80" y="138" width="220" height="40" rx="8" fill="#E1F5EE" stroke="#0F6E56" stroke-width="0.6"/>
  <text class="h" x="190" y="154" text-anchor="middle" fill="#085041">_fetch_xcloud_catalog()</text><text class="s" x="190" y="170" text-anchor="middle">catalog.gamepass.com</text>
  <line x1="300" y1="158" x2="380" y2="158" class="arr" stroke="#0F6E56"/>
  <rect x="382" y="138" width="280" height="40" rx="8" fill="#F8F8F6" stroke="#B4B2A9" stroke-width="0.6"/>
  <text class="s" x="522" y="154" text-anchor="middle">~500 product IDs</text><text class="code" x="522" y="170" text-anchor="middle">[9NPDN9R45JX4, ...]</text>
  <line x1="190" y1="178" x2="190" y2="196" class="arr" stroke="#0F6E56"/>
  <circle cx="55" cy="216" r="12" fill="#854F0B"/><text class="n" x="55" y="220" text-anchor="middle">4</text>
  <rect x="80" y="198" width="220" height="40" rx="8" fill="#FAEEDA" stroke="#854F0B" stroke-width="0.6"/>
  <text class="h" x="190" y="214" text-anchor="middle" fill="#633806">_batch_get_titles()</text><text class="s" x="190" y="230" text-anchor="middle">displaycatalog (batches of 20)</text>
  <line x1="300" y1="218" x2="380" y2="218" class="arr" stroke="#854F0B"/>
  <rect x="382" y="198" width="280" height="40" rx="8" fill="#F8F8F6" stroke="#B4B2A9" stroke-width="0.6"/>
  <text class="code" x="522" y="222" text-anchor="middle">"9NPDN9R45JX4" → "Halo Infinite"</text>
  <line x1="190" y1="238" x2="190" y2="256" class="arr" stroke="#854F0B"/>
  <circle cx="55" cy="276" r="12" fill="#993C1D"/><text class="n" x="55" y="280" text-anchor="middle">5</text>
  <rect x="80" y="258" width="580" height="40" rx="8" fill="#FAECE7" stroke="#993C1D" stroke-width="0.6"/>
  <text class="h" x="370" y="274" text-anchor="middle" fill="#712B13">Build Game objects</text><text class="code" x="370" y="290" text-anchor="middle">Game(id, title, store="microsoft", store_tags=["xcloud"])</text>
  <line x1="370" y1="298" x2="370" y2="316" class="arr" stroke="#993C1D"/>
  <circle cx="55" cy="336" r="12" fill="#3B6D11"/><text class="n" x="55" y="340" text-anchor="middle">6</text>
  <rect x="80" y="318" width="580" height="48" rx="8" fill="#EAF3DE" stroke="#3B6D11" stroke-width="0.6"/>
  <text class="h" x="370" y="336" text-anchor="middle" fill="#27500A">create_or_update_shortcuts()</text><text class="code" x="370" y="354" text-anchor="middle">games.map: microsoft:ID|xcloud|https://www.xbox.com/play/launch/ID</text>
  <rect x="140" y="396" width="440" height="32" rx="8" fill="#E1F5EE" stroke="#0F6E56" stroke-width="0.6"/>
  <text class="h" x="360" y="416" text-anchor="middle" fill="#085041">~500 raccourcis Steam avec artwork</text>
  <line x1="370" y1="366" x2="370" y2="394" class="arr" stroke="#3B6D11"/>
</svg>
